<svg width="29" height="30" viewBox="0 0 29 30" fill="none" xmlns="http://www.w3.org/2000/svg">
<path fill-rule="evenodd" clip-rule="evenodd" d="M6.06977 15C6.06977 14.0257 6.2296 13.0916 6.51488 12.2154L1.52149 8.35498C0.548302 10.3554 0 12.6095 0 15C0 17.3884 0.547628 19.6411 1.51946 21.6402L6.51016 17.7723C6.22758 16.9002 6.06977 15.9695 6.06977 15Z" fill="#FBBC05"/>
<path fill-rule="evenodd" clip-rule="evenodd" d="M14.8372 6.13636C16.9279 6.13636 18.8163 6.88636 20.3 8.11364L24.6163 3.75C21.986 1.43182 18.614 0 14.8372 0C8.97381 0 3.93455 3.39477 1.52148 8.355L6.51488 12.2155C7.66544 8.67955 10.9451 6.13636 14.8372 6.13636Z" fill="#EB4335"/>
<path fill-rule="evenodd" clip-rule="evenodd" d="M14.8372 23.8636C10.9451 23.8636 7.66544 21.3205 6.51488 17.7845L1.52148 21.6443C3.93455 26.6052 8.97381 30 14.8372 30C18.4561 30 21.9112 28.6991 24.5043 26.2616L19.7645 22.5518C18.4271 23.4048 16.7431 23.8636 14.8372 23.8636Z" fill="#34A853"/>
<path fill-rule="evenodd" clip-rule="evenodd" d="M29.0002 15C29.0002 14.1136 28.8653 13.1591 28.663 12.2727H14.8374V18.0682H22.7955C22.3976 20.0441 21.3145 21.5632 19.7647 22.5518L24.5045 26.2616C27.2285 23.702 29.0002 19.8893 29.0002 15Z" fill="#4285F4"/>
</svg>
