<svg width="37" height="36" viewBox="0 0 37 36" fill="none" xmlns="http://www.w3.org/2000/svg">
<path d="M8.04175 5.62598H28.2917C28.5901 5.62598 28.8763 5.7445 29.0872 5.95548C29.2982 6.16646 29.4167 6.45261 29.4167 6.75098V28.126C29.4167 29.0211 29.0612 29.8795 28.4282 30.5125C27.7953 31.1454 26.9369 31.501 26.0417 31.501H10.2917C9.39664 31.501 8.5382 31.1454 7.90526 30.5125C7.27233 29.8795 6.91675 29.0211 6.91675 28.126V6.75098C6.91675 6.45261 7.03527 6.16646 7.24625 5.95548C7.45723 5.7445 7.74338 5.62598 8.04175 5.62598Z" fill="#50C878" stroke="#32B768" stroke-width="2.5" stroke-linecap="round" stroke-linejoin="round"/>
<path d="M13.6667 22.501H22.6667" stroke="#32B768" stroke-width="2.5" stroke-linecap="round" stroke-linejoin="round"/>
<path d="M13.6667 18.001H22.6667" stroke="#32B768" stroke-width="2.5" stroke-linecap="round" stroke-linejoin="round"/>
<path d="M11.4167 3.37598V7.87598" stroke="#32B768" stroke-width="2.5" stroke-linecap="round" stroke-linejoin="round"/>
<path d="M18.1667 3.37598V7.87598" stroke="#32B768" stroke-width="2.5" stroke-linecap="round" stroke-linejoin="round"/>
<path d="M24.9167 3.37598V7.87598" stroke="#32B768" stroke-width="2.5" stroke-linecap="round" stroke-linejoin="round"/>
</svg>
