<svg width="23" height="28" viewBox="0 0 23 28" fill="none" xmlns="http://www.w3.org/2000/svg">
<path d="M16.8332 7.33333C16.8332 8.74782 16.2713 10.1044 15.2711 11.1046C14.2709 12.1048 12.9143 12.6667 11.4998 12.6667C10.0853 12.6667 8.7288 12.1048 7.7286 11.1046C6.72841 10.1044 6.1665 8.74782 6.1665 7.33333C6.1665 5.91885 6.72841 4.56229 7.7286 3.5621C8.7288 2.5619 10.0853 2 11.4998 2C12.9143 2 14.2709 2.5619 15.2711 3.5621C16.2713 4.56229 16.8332 5.91885 16.8332 7.33333V7.33333ZM11.4998 16.6667C9.02448 16.6667 6.65051 17.65 4.90017 19.4003C3.14983 21.1507 2.1665 23.5246 2.1665 26H20.8332C20.8332 23.5246 19.8498 21.1507 18.0995 19.4003C16.3492 17.65 13.9752 16.6667 11.4998 16.6667V16.6667Z" stroke="#4B5563" stroke-width="2.5" stroke-linecap="round" stroke-linejoin="round"/>
</svg>
