<svg width="23" height="28" viewBox="0 0 23 28" fill="none" xmlns="http://www.w3.org/2000/svg">
<path d="M16.8334 7.33333C16.8334 8.74782 16.2715 10.1044 15.2713 11.1046C14.2711 12.1048 12.9146 12.6667 11.5001 12.6667C10.0856 12.6667 8.72904 12.1048 7.72885 11.1046C6.72865 10.1044 6.16675 8.74782 6.16675 7.33333C6.16675 5.91885 6.72865 4.56229 7.72885 3.5621C8.72904 2.5619 10.0856 2 11.5001 2C12.9146 2 14.2711 2.5619 15.2713 3.5621C16.2715 4.56229 16.8334 5.91885 16.8334 7.33333V7.33333ZM11.5001 16.6667C9.02473 16.6667 6.65076 17.65 4.90042 19.4003C3.15008 21.1507 2.16675 23.5246 2.16675 26H20.8334C20.8334 23.5246 19.8501 21.1507 18.0997 19.4003C16.3494 17.65 13.9754 16.6667 11.5001 16.6667V16.6667Z" stroke="#32B768" stroke-width="2.5" stroke-linecap="round" stroke-linejoin="round"/>
</svg>
