<svg width="37" height="36" viewBox="0 0 37 36" fill="none" xmlns="http://www.w3.org/2000/svg">
<path d="M13.6667 18.0007H22.6667" stroke="#32B768" stroke-width="2.5" stroke-linecap="round" stroke-linejoin="round"/>
<path d="M13.6667 22.5007H22.6667" stroke="#32B768" stroke-width="2.5" stroke-linecap="round" stroke-linejoin="round"/>
<path d="M8.125 6H28.375C28.6734 6 28.9595 6.11853 29.1705 6.32951C29.3815 6.54048 29.5 6.82663 29.5 7.125V28.5C29.5 29.3951 29.1444 30.2536 28.5115 30.8865C27.8786 31.5194 27.0201 31.875 26.125 31.875H10.375C9.47989 31.875 8.62145 31.5194 7.98851 30.8865C7.35558 30.2536 7 29.3951 7 28.5V7.125C7 6.82663 7.11853 6.54048 7.32951 6.32951C7.54048 6.11853 7.82663 6 8.125 6Z" stroke="#50C878" stroke-width="2.5" stroke-linecap="round" stroke-linejoin="round"/>
<path d="M11.4167 3.37573V7.87573" stroke="#50C878" stroke-width="2.5" stroke-linecap="round" stroke-linejoin="round"/>
<path d="M18.1667 3.37573V7.87573" stroke="#50C878" stroke-width="2.5" stroke-linecap="round" stroke-linejoin="round"/>
<path d="M24.9167 3.37573V7.87573" stroke="#50C878" stroke-width="2.5" stroke-linecap="round" stroke-linejoin="round"/>
</svg>
